<?xml version="1.0" encoding="UTF-8" standalone="no"?>
<svg
   data-v-6805eed4=""
   version="1.0"
   width="512"
   height="84"
   viewBox="0 0 512 84"
   preserveAspectRatio="xMidYMid meet"
   color-interpolation-filters="sRGB"
   id="svg42"
   sodipodi:docname="logo.svg"
   inkscape:version="1.1.2 (0a00cf5339, 2022-02-04)"
   xmlns:inkscape="http://www.inkscape.org/namespaces/inkscape"
   xmlns:sodipodi="http://sodipodi.sourceforge.net/DTD/sodipodi-0.dtd"
   xmlns="http://www.w3.org/2000/svg"
   xmlns:svg="http://www.w3.org/2000/svg">
  <sodipodi:namedview
     id="namedview44"
     pagecolor="#ffffff"
     bordercolor="#666666"
     borderopacity="1.0"
     inkscape:pageshadow="2"
     inkscape:pageopacity="0.0"
     inkscape:pagecheckerboard="0"
     showgrid="false"
     inkscape:zoom="1"
     inkscape:cx="399"
     inkscape:cy="57"
     inkscape:window-width="2506"
     inkscape:window-height="1376"
     inkscape:window-x="54"
     inkscape:window-y="27"
     inkscape:window-maximized="1"
     inkscape:current-layer="svg42"
     fit-margin-top="10"
     fit-margin-left="10"
     fit-margin-right="10"
     fit-margin-bottom="10" />
  <g
     data-v-6805eed4=""
     fill="#c6a9a7"
     class="endsvg"
     transform="matrix(1.9881198,0,0,1.9881198,12.634236,12.64611)"
     id="g38"
     style="fill:#d35f5f">
    <g
       class="tp-name"
       id="g36"
       style="fill:#d35f5f">
      <g
         id="g4"
         style="fill:#d35f5f">
        <path
           id="rect2"
           style="fill:#d35f5f;fill-opacity:0;stroke-width:2"
           class="i-icon-bg"
           d="M 0,0 H 245.82001 V 29.530001 H 0 Z" />
      </g>
      <g
         id="g34"
         style="fill:#d35f5f">
        <g
           data-gra="path-name-bg"
           id="g18"
           style="fill:#d35f5f">
          <g
             id="g8"
             style="fill:#d35f5f">
            <g
               id="rect6"
               class="i-icon-bg"
               style="fill:#d35f5f">
              <path
                 style="color:#000000;fill:#d35f5f;fill-opacity:0;stroke-width:2;-inkscape-stroke:none"
                 d="M 0,0 H 97.209999 V 29.530001 H 0 Z"
                 id="path1030" />
              <path
                 style="color:#000000;fill:#d35f5f;-inkscape-stroke:none"
                 d="M -1,-1 V 0 30.529297 H 98.210937 V -1 Z M 1,1 H 96.210937 V 28.529297 H 1 Z"
                 id="path1032" />
            </g>
          </g>
          <g
             transform="translate(5,5)"
             id="g16"
             style="fill:#d35f5f">
            <g
               data-gra="path-name"
               fill="#c6a9a7"
               id="g14"
               style="fill:#d35f5f">
              <g
                 id="g12"
                 style="fill:#d35f5f">
                <path
                   d="M 10.62,0 H 5.88 V -15.3 H 0.32 V -18.95 H 16.18 V -15.3 H 10.62 Z M 28.36,0 H 23.6 V -6.97 L 16.8,-18.95 H 21.74 L 25.98,-11.09 30.22,-18.95 H 35.16 L 28.36,-6.97 Z M 41.1,0 H 36.37 V -18.95 H 45.69 Q 47.96,-18.95 49.43,-18.05 50.9,-17.15 51.62,-15.62 52.34,-14.09 52.34,-12.18 V -12.18 Q 52.34,-10.24 51.52,-8.74 50.7,-7.24 49.18,-6.4 47.67,-5.56 45.58,-5.56 V -5.56 H 41.1 Z M 41.1,-15.3 V -9.21 H 44.52 Q 46.02,-9.21 46.77,-10.03 47.52,-10.86 47.52,-12.21 V -12.21 Q 47.52,-13.68 46.83,-14.49 46.14,-15.3 44.66,-15.3 V -15.3 Z M 68.17,0 H 54.2 V -18.95 H 68.17 V -15.3 H 58.93 V -11.33 H 67.08 V -7.62 H 58.93 V -3.65 H 68.17 Z M 78.65,0 H 70.44 V -18.95 H 78.65 Q 81.53,-18.95 83.5,-17.99 85.47,-17.04 86.5,-14.93 87.53,-12.83 87.53,-9.36 V -9.36 Q 87.53,-4.47 85.28,-2.24 83.03,0 78.65,0 Z M 75.18,-15.3 V -3.65 H 78 Q 79.53,-3.65 80.58,-4.1 81.62,-4.56 82.16,-5.8 82.71,-7.03 82.71,-9.36 V -9.36 Q 82.71,-11.71 82.22,-12.99 81.74,-14.27 80.69,-14.79 79.65,-15.3 78,-15.3 V -15.3 Z"
                   transform="translate(-0.32365358,19.242676)"
                   id="path10"
                   style="fill:#d35f5f" />
              </g>
            </g>
          </g>
        </g>
        <g
           data-gra="path-name-1-bg"
           transform="translate(97.209999)"
           id="g32"
           style="fill:#d35f5f">
          <g
             id="g22"
             style="fill:#d35f5f">
            <path
               id="rect20"
               style="fill:#d35f5f;fill-opacity:0;stroke-width:2"
               class="i-icon-bg"
               d="M 0,0 H 148.61002 V 29.530001 H 0 Z" />
          </g>
          <g
             transform="translate(5,5)"
             id="g30"
             style="fill:#d35f5f">
            <g
               data-gra="path-name-1"
               fill="#c6a9a7"
               id="g28"
               style="fill:#d35f5f">
              <g
                 id="g26"
                 style="fill:#d35f5f">
                <path
                   d="M 3.97,0 H 1.47 L 8.68,-18.95 H 11.5 L 18.68,0 H 16.21 L 14.21,-5.21 H 5.97 Z M 10.06,-16.86 6.38,-7.12 H 13.77 Z M 24.63,0 H 22.21 V -18.95 H 30.54 Q 33.6,-18.95 35,-17.36 36.4,-15.77 36.4,-13.06 V -13.06 Q 36.4,-10.97 35.38,-9.59 34.37,-8.21 32.37,-7.74 V -7.74 Q 32.95,-7.39 33.26,-6.93 33.57,-6.47 33.9,-5.71 V -5.71 L 36.37,0 H 33.9 L 31.48,-5.5 Q 31.1,-6.38 30.56,-6.77 30.01,-7.15 28.63,-7.15 V -7.15 H 24.63 Z M 24.63,-17.04 V -9.03 H 29.86 Q 31.78,-9.03 32.88,-9.99 33.98,-10.95 33.98,-13.06 V -13.06 Q 33.98,-17.04 30.19,-17.04 V -17.04 Z M 47.99,0.29 V 0.29 Q 44.93,0.29 42.91,-0.87 40.9,-2.03 39.9,-4.13 38.9,-6.24 38.9,-9.06 V -9.06 Q 38.9,-12.15 39.84,-14.45 40.78,-16.74 42.78,-17.99 44.78,-19.24 47.96,-19.24 V -19.24 Q 49.61,-19.24 50.95,-19.01 52.28,-18.77 53.46,-18.36 V -18.36 -16.24 Q 52.28,-16.68 50.96,-16.93 49.64,-17.18 48.17,-17.18 V -17.18 Q 45.61,-17.18 44.11,-16.21 42.6,-15.24 41.96,-13.42 41.31,-11.59 41.31,-9.06 V -9.06 Q 41.31,-5.56 42.93,-3.66 44.55,-1.77 48.14,-1.77 V -1.77 Q 49.4,-1.77 50.58,-1.97 51.76,-2.18 52.67,-2.53 V -2.53 -8.56 H 47.61 V -10.21 H 54.76 V -1.21 Q 53.9,-0.65 52.27,-0.18 50.64,0.29 47.99,0.29 Z M 60.7,0 H 58.29 V -18.95 H 66.29 Q 69.47,-18.95 70.97,-17.24 72.47,-15.54 72.47,-12.83 V -12.83 Q 72.47,-10.06 70.78,-8.46 69.09,-6.86 66.17,-6.86 V -6.86 H 60.7 Z M 60.7,-17.04 V -8.74 H 65.79 Q 67.91,-8.74 68.98,-9.84 70.06,-10.95 70.06,-12.83 V -12.83 Q 70.06,-14.83 69.04,-15.93 68.03,-17.04 65.94,-17.04 V -17.04 Z M 74.97,0 H 72.47 L 79.68,-18.95 H 82.5 L 89.68,0 H 87.21 L 85.21,-5.21 H 76.97 Z M 81.06,-16.86 77.38,-7.12 H 84.77 Z M 95.62,0 H 93.21 V -18.95 H 101.54 Q 104.6,-18.95 106,-17.36 107.39,-15.77 107.39,-13.06 V -13.06 Q 107.39,-10.97 106.38,-9.59 105.36,-8.21 103.36,-7.74 V -7.74 Q 103.95,-7.39 104.26,-6.93 104.57,-6.47 104.89,-5.71 V -5.71 L 107.36,0 H 104.89 L 102.48,-5.5 Q 102.1,-6.38 101.55,-6.77 101.01,-7.15 99.63,-7.15 V -7.15 H 95.62 Z M 95.62,-17.04 V -9.03 H 100.86 Q 102.77,-9.03 103.88,-9.99 104.98,-10.95 104.98,-13.06 V -13.06 Q 104.98,-17.04 101.19,-17.04 V -17.04 Z M 116.49,0.29 V 0.29 Q 112.96,0.29 110.78,-0.59 V -0.59 -2.74 Q 112.01,-2.27 113.41,-2.02 114.81,-1.77 116.28,-1.77 V -1.77 Q 118.81,-1.77 120.08,-2.46 121.34,-3.15 121.34,-4.94 V -4.94 Q 121.34,-6.06 120.83,-6.72 120.31,-7.39 119.13,-7.84 117.96,-8.3 115.99,-8.77 V -8.77 Q 112.87,-9.53 111.6,-10.75 110.34,-11.98 110.34,-14.03 V -14.03 Q 110.34,-16.45 112.07,-17.85 113.81,-19.24 117.37,-19.24 V -19.24 Q 119.02,-19.24 120.43,-19.01 121.84,-18.77 122.61,-18.51 V -18.51 -16.39 Q 121.55,-16.77 120.31,-16.98 119.08,-17.18 117.75,-17.18 V -17.18 Q 115.34,-17.18 114.04,-16.48 112.75,-15.77 112.75,-14.03 V -14.03 Q 112.75,-13.06 113.21,-12.46 113.66,-11.86 114.75,-11.43 115.84,-11 117.78,-10.53 V -10.53 Q 120.1,-9.97 121.4,-9.19 122.69,-8.41 123.22,-7.36 123.75,-6.3 123.75,-4.94 V -4.94 Q 123.75,-2.44 121.93,-1.07 120.1,0.29 116.49,0.29 Z M 140.08,0 H 127.28 V -18.95 H 140.08 V -17.04 H 129.7 V -10.42 H 139.02 V -8.53 H 129.7 V -1.88 H 140.08 Z"
                   transform="translate(-1.4711526,19.242676)"
                   id="path24"
                   style="fill:#d35f5f" />
              </g>
            </g>
          </g>
        </g>
      </g>
    </g>
  </g>
  <defs
     v-gra="od"
     id="defs40" />
</svg>
